STARTFONT 2.1
FONT -FontForge-VCR OSD Mono-Book-R-Normal--42-400-75-75-P-187-ISO10646-1
SIZE 40 75 75
FONTBOUNDINGBOX 25 39 0 -1
COMMENT "Generated by fontforge, http://fontforge.sourceforge.net"
STARTPROPERTIES 39
FOUNDRY "FontForge"
FAMILY_NAME "VCR OSD Mono"
WEIGHT_NAME "Book"
SLANT "R"
SETWIDTH_NAME "Normal"
ADD_STYLE_NAME ""
PIXEL_SIZE 42
POINT_SIZE 400
RESOLUTION_X 75
RESOLUTION_Y 75
SPACING "P"
AVERAGE_WIDTH 187
CHARSET_REGISTRY "ISO10646"
CHARSET_ENCODING "1"
FONTNAME_REGISTRY ""
CHARSET_COLLECTIONS "ISO10646-1"
FONT_NAME "VCROSDMono"
FACE_NAME "VCR OSD Mono"
FONT_VERSION "1.001 March 31, 2015"
FONT_ASCENT 34
FONT_DESCENT 8
UNDERLINE_POSITION -6
UNDERLINE_THICKNESS 4
X_HEIGHT 26
CAP_HEIGHT 31
DEFAULT_CHAR 1
RAW_ASCENT 799
RAW_DESCENT 200
NORM_SPACE 12
RELATIVE_WEIGHT 40
RELATIVE_SETWIDTH 50
SUPERSCRIPT_X 0
SUPERSCRIPT_Y 18
SUPERSCRIPT_SIZE 27
SUBSCRIPT_X 0
SUBSCRIPT_Y 6
SUBSCRIPT_SIZE 27
AVG_LOWERCASE_WIDTH 190
AVG_UPPERCASE_WIDTH 189
ENDPROPERTIES
CHARS 209
STARTCHAR NULL.dup1
ENCODING 0
SWIDTH 0 0
DWIDTH 0 0
BBX 1 1 0 0
BITMAP
00
ENDCHAR
STARTCHAR NULL
ENCODING 29
SWIDTH 0 0
DWIDTH 0 0
BBX 1 1 0 0
BITMAP
00
ENDCHAR
STARTCHAR space
ENCODING 32
SWIDTH 292 0
DWIDTH 12 0
BBX 1 1 0 0
BITMAP
00
ENDCHAR
STARTCHAR exclam
ENCODING 33
SWIDTH 292 0
DWIDTH 12 0
BBX 2 31 5 0
BITMAP
C0
C0
C0
C0
C0
C0
C0
C0
C0
C0
C0
C0
C0
C0
C0
C0
C0
C0
C0
C0
C0
C0
C0
C0
C0
00
00
C0
C0
C0
C0
ENDCHAR
STARTCHAR quotedbl
ENCODING 34
SWIDTH 292 0
DWIDTH 13 0
BBX 9 10 2 21
BITMAP
F780
F780
F780
F780
F780
F780
F780
6300
6300
6300
ENDCHAR
STARTCHAR numbersign
ENCODING 35
SWIDTH 292 0
DWIDTH 12 0
BBX 10 30 1 1
BITMAP
3300
3300
3300
3300
33C0
3FC0
3FC0
3FC0
FF00
F300
F300
F300
3300
3300
3300
3300
33C0
33C0
3FC0
3FC0
FF00
FF00
F300
F300
3300
3300
3300
3000
3000
3000
ENDCHAR
STARTCHAR dollar
ENCODING 36
SWIDTH 292 0
DWIDTH 13 0
BBX 11 32 1 -1
BITMAP
3F80
3F80
3F80
3F80
FFC0
FFE0
FDE0
CC60
CC60
CC60
CC60
FC00
FC00
7F80
7F80
3FC0
3FC0
0DE0
0DE0
0DE0
CC60
CC60
FDE0
FDE0
FDE0
7FC0
7FC0
3F80
3F80
0C00
0C00
0C00
ENDCHAR
STARTCHAR percent
ENCODING 37
SWIDTH 292 0
DWIDTH 13 0
BBX 11 32 1 -1
BITMAP
7860
7860
F860
F860
D860
D860
D9E0
D9E0
FBC0
FBC0
FBC0
FBC0
0600
0600
0600
1C00
1C00
1C00
3BC0
3BC0
7FE0
7FE0
E660
E660
C660
C660
C660
C7E0
C7E0
C7E0
C3C0
C3C0
ENDCHAR
STARTCHAR ampersand
ENCODING 38
SWIDTH 292 0
DWIDTH 12 0
BBX 10 36 1 -1
BITMAP
1C00
1C00
3E00
3E00
6300
6300
6300
6300
6300
6300
6300
6300
6300
6300
3600
3600
3E00
3E00
3C00
7C00
7C00
FC00
CEC0
CEC0
C7C0
C7C0
C3C0
C3C0
C3C0
E3C0
E3C0
E3C0
7FC0
7FC0
3EC0
3EC0
ENDCHAR
STARTCHAR quotesingle
ENCODING 39
SWIDTH 292 0
DWIDTH 12 0
BBX 4 9 4 22
BITMAP
F0
F0
F0
F0
F0
F0
F0
60
60
ENDCHAR
STARTCHAR parenleft
ENCODING 40
SWIDTH 292 0
DWIDTH 12 0
BBX 5 39 4 -1
BITMAP
18
18
18
10
30
30
30
60
60
C0
C0
C0
C0
C0
C0
C0
C0
C0
C0
C0
C0
C0
C0
C0
C0
C0
C0
C0
C0
C0
C0
C0
60
60
30
30
30
18
18
ENDCHAR
STARTCHAR parenright
ENCODING 41
SWIDTH 292 0
DWIDTH 12 0
BBX 5 39 4 -1
BITMAP
C0
C0
C0
E0
60
60
60
30
30
18
18
18
18
18
18
18
18
18
18
18
18
18
18
18
18
18
18
18
18
18
18
18
30
30
60
60
60
C0
C0
ENDCHAR
STARTCHAR asterisk
ENCODING 42
SWIDTH 292 0
DWIDTH 12 0
BBX 8 22 2 13
BITMAP
18
18
18
18
99
99
DB
DB
7E
7E
3C
3C
3C
7E
7E
DB
DB
99
99
99
18
18
ENDCHAR
STARTCHAR plus
ENCODING 43
SWIDTH 292 0
DWIDTH 12 0
BBX 10 23 1 4
BITMAP
0C00
0C00
0C00
0C00
0C00
0C00
0C00
0C00
0C00
FFC0
FFC0
FFC0
FFC0
0C00
0C00
0C00
0C00
0C00
0C00
0C00
0C00
0C00
0C00
ENDCHAR
STARTCHAR comma
ENCODING 44
SWIDTH 292 0
DWIDTH 12 0
BBX 4 10 4 1
BITMAP
30
30
30
30
30
60
60
40
C0
C0
ENDCHAR
STARTCHAR hyphen
ENCODING 45
SWIDTH 292 0
DWIDTH 12 0
BBX 8 4 2 14
BITMAP
FF
FF
FF
FF
ENDCHAR
STARTCHAR period
ENCODING 46
SWIDTH 146 0
DWIDTH 6 0
BBX 2 4 2 2
BITMAP
C0
C0
C0
C0
ENDCHAR
STARTCHAR slash
ENCODING 47
SWIDTH 292 0
DWIDTH 12 0
BBX 10 32 1 -1
BITMAP
00C0
00C0
00C0
00C0
00C0
00C0
00C0
01C0
01C0
0380
0380
0700
0700
0700
0E00
0E00
1C00
1C00
3800
3800
3800
7000
7000
E000
E000
C000
C000
C000
C000
C000
C000
C000
ENDCHAR
STARTCHAR zero
ENCODING 48
SWIDTH 292 0
DWIDTH 13 0
BBX 11 30 1 2
BITMAP
3F80
7FC0
7FC0
F1E0
F1E0
F1E0
C060
C060
C1E0
C1E0
C1E0
C3E0
C260
C660
C460
C460
CC60
C860
F860
F060
F060
F060
C060
C060
F1E0
F1E0
F1E0
7FC0
7FC0
3F80
ENDCHAR
STARTCHAR one
ENCODING 49
SWIDTH 292 0
DWIDTH 12 0
BBX 6 30 3 2
BITMAP
30
70
70
F0
F0
F0
F0
F0
30
30
30
30
30
30
30
30
30
30
30
30
30
30
30
30
30
30
FC
FC
FC
FC
ENDCHAR
STARTCHAR two
ENCODING 50
SWIDTH 292 0
DWIDTH 13 0
BBX 11 30 1 2
BITMAP
3F80
7FC0
7FC0
7FC0
F1E0
F1E0
E0E0
C060
0060
0060
00E0
01E0
1FC0
3FC0
7F80
7F00
F000
E000
C000
C000
C000
C000
C000
C000
C000
C000
FFE0
FFE0
FFE0
FFE0
ENDCHAR
STARTCHAR three
ENCODING 51
SWIDTH 292 0
DWIDTH 13 0
BBX 11 30 1 2
BITMAP
3F80
3F80
7FC0
7FC0
F1E0
F1E0
C060
C060
0060
0060
0060
01E0
01E0
0FC0
0F80
0F80
0FC0
01E0
01E0
0060
0060
0060
C060
C060
F1E0
F1E0
F1E0
7FC0
7FC0
3F80
ENDCHAR
STARTCHAR four
ENCODING 52
SWIDTH 292 0
DWIDTH 12 0
BBX 10 30 1 2
BITMAP
0300
0700
0700
0F00
0F00
1F00
1F00
1B00
3B00
3B00
7300
7300
E300
E300
E300
C300
C300
FFC0
FFC0
FFC0
FFC0
0300
0300
0300
0300
0300
0300
0300
0300
0300
ENDCHAR
STARTCHAR five
ENCODING 53
SWIDTH 292 0
DWIDTH 13 0
BBX 11 30 1 2
BITMAP
FFE0
FFE0
FFE0
FFE0
C000
C000
C000
C000
FF80
FF80
FFC0
FFC0
01E0
00E0
00E0
0060
0060
0060
0060
0060
0060
0060
C060
C060
C060
E1E0
E1E0
FFE0
7FC0
3F80
ENDCHAR
STARTCHAR six
ENCODING 54
SWIDTH 292 0
DWIDTH 13 0
BBX 11 30 1 2
BITMAP
3F80
7FC0
7FC0
F1E0
E0E0
C0E0
C060
C000
C000
C000
C000
C000
CF00
DF80
FFC0
FFE0
F1E0
E0E0
C060
C060
C060
C060
C060
C060
E0E0
F1E0
F1E0
7FC0
7FC0
3F80
ENDCHAR
STARTCHAR seven
ENCODING 55
SWIDTH 292 0
DWIDTH 12 0
BBX 10 30 1 2
BITMAP
FFC0
FFC0
FFC0
FFC0
00C0
00C0
00C0
00C0
00C0
01C0
01C0
0380
0380
0780
0700
0700
0E00
0E00
0C00
0C00
0C00
0C00
0C00
0C00
0C00
0C00
0C00
0C00
0C00
0C00
ENDCHAR
STARTCHAR eight
ENCODING 56
SWIDTH 292 0
DWIDTH 13 0
BBX 11 30 1 2
BITMAP
3F80
7FC0
7FC0
F1E0
E0E0
C060
C060
C060
C060
C060
C060
E0E0
F1E0
7FC0
3F80
3F80
7FC0
F1E0
E0E0
C060
C060
C060
C060
C060
C060
E0E0
F1E0
FFE0
7FC0
3F80
ENDCHAR
STARTCHAR nine
ENCODING 57
SWIDTH 292 0
DWIDTH 13 0
BBX 11 30 1 2
BITMAP
3F80
3F80
7FC0
7FC0
F1E0
E0E0
C060
C060
C060
C060
C060
E0E0
F1E0
7FE0
7FE0
3F60
1E60
0060
0060
0060
0060
0060
C060
C060
C060
E0E0
F1E0
7FE0
7FC0
3F80
ENDCHAR
STARTCHAR colon
ENCODING 58
SWIDTH 146 0
DWIDTH 6 0
BBX 4 22 1 5
BITMAP
F0
F0
F0
F0
00
00
00
00
00
00
00
00
00
00
00
00
00
00
F0
F0
F0
F0
ENDCHAR
STARTCHAR semicolon
ENCODING 59
SWIDTH 146 0
DWIDTH 6 0
BBX 4 27 1 0
BITMAP
30
30
30
30
00
00
00
00
00
00
00
00
00
00
00
00
00
30
30
30
30
30
60
60
60
C0
C0
ENDCHAR
STARTCHAR less
ENCODING 60
SWIDTH 292 0
DWIDTH 12 0
BBX 11 37 2 -1
BITMAP
00E0
00E0
00E0
00E0
00E0
07E0
0180
0780
0780
0F00
0F00
1E00
1C00
1800
7800
7800
F000
F000
E000
E000
E000
F000
F000
7800
7800
1800
1C00
1E00
0F00
0F00
0780
0780
01E0
01E0
01E0
00E0
00E0
ENDCHAR
STARTCHAR equal
ENCODING 61
SWIDTH 292 0
DWIDTH 12 0
BBX 10 14 1 9
BITMAP
FFC0
FFC0
FFC0
FFC0
0000
0000
0000
0000
0000
0000
FFC0
FFC0
FFC0
FFC0
ENDCHAR
STARTCHAR greater
ENCODING 62
SWIDTH 292 0
DWIDTH 12 0
BBX 10 37 2 -1
BITMAP
C000
C000
C000
C000
C000
E000
7000
7800
7800
3C00
3C00
0E00
1E00
1E00
0780
0780
03C0
03C0
01C0
01C0
01C0
03C0
03C0
0780
0780
1E00
1E00
1E00
3C00
3C00
7800
7800
E000
F000
F000
C000
C000
ENDCHAR
STARTCHAR question
ENCODING 63
SWIDTH 292 0
DWIDTH 13 0
BBX 11 31 1 0
BITMAP
3F80
7FC0
7FC0
7FC0
E1E0
E1E0
E1E0
C060
0060
0060
0060
0060
01E0
01E0
03C0
03C0
03C0
0780
0780
0E00
0E00
0E00
0C00
0C00
0000
0000
0000
0C00
0C00
0C00
0C00
ENDCHAR
STARTCHAR at
ENCODING 64
SWIDTH 292 0
DWIDTH 12 0
BBX 10 27 1 2
BITMAP
3F00
3F00
6180
6180
C0C0
C0C0
9A40
9A40
B640
B640
B640
B640
B640
B640
B640
B640
B6C0
B6C0
9D80
9D80
C000
C000
C000
6180
6180
3F00
3F00
ENDCHAR
STARTCHAR A
ENCODING 65
SWIDTH 292 0
DWIDTH 12 0
BBX 10 32 1 -1
BITMAP
1E00
1E00
1E00
1E00
3F00
3F00
3F00
E1C0
E1C0
E1C0
E1C0
C0C0
C0C0
C0C0
C0C0
C0C0
C0C0
C0C0
FFC0
FFC0
FFC0
FFC0
C0C0
C0C0
C0C0
C0C0
C0C0
C0C0
C0C0
C0C0
C0C0
C0C0
ENDCHAR
STARTCHAR B
ENCODING 66
SWIDTH 292 0
DWIDTH 13 0
BBX 11 31 1 0
BITMAP
FF80
FF80
FFC0
FFC0
C1E0
C1E0
C060
C060
C060
C060
C060
C1E0
C1E0
FFC0
FFC0
FFC0
FFC0
C1E0
C1E0
C1E0
C060
C060
C060
C060
C060
C1E0
C1E0
FFC0
FFC0
FF80
FF80
ENDCHAR
STARTCHAR C
ENCODING 67
SWIDTH 292 0
DWIDTH 13 0
BBX 11 32 1 -1
BITMAP
3F80
7FC0
7FC0
7FC0
F1E0
F1E0
F1E0
C040
C000
C000
C000
C000
C000
C000
C000
C000
C000
C000
C000
C000
C000
C000
C060
C060
C060
F1E0
F1E0
F1E0
7FC0
3F80
3F80
3F80
ENDCHAR
STARTCHAR D
ENCODING 68
SWIDTH 292 0
DWIDTH 13 0
BBX 11 31 1 0
BITMAP
FF80
FF80
FFC0
FFC0
C1E0
C1E0
C060
C060
C060
C060
C060
C060
C060
C060
C060
C060
C060
C060
C060
C060
C060
C060
C060
C060
C060
C1E0
C1E0
FFC0
FFC0
FF80
FF80
ENDCHAR
STARTCHAR E
ENCODING 69
SWIDTH 292 0
DWIDTH 12 0
BBX 10 31 1 0
BITMAP
FFC0
FFC0
FFC0
FFC0
C000
C000
C000
C000
C000
C000
C000
C000
C000
FF00
FF00
FF00
FF00
C000
C000
C000
C000
C000
C000
C000
C000
C000
C000
FFC0
FFC0
FFC0
FFC0
ENDCHAR
STARTCHAR F
ENCODING 70
SWIDTH 292 0
DWIDTH 12 0
BBX 10 32 1 -1
BITMAP
FFC0
FFC0
FFC0
FFC0
C000
C000
C000
C000
C000
C000
C000
C000
C000
FF00
FF00
FF00
FF00
C000
C000
C000
C000
C000
C000
C000
C000
C000
C000
C000
C000
C000
C000
C000
ENDCHAR
STARTCHAR G
ENCODING 71
SWIDTH 292 0
DWIDTH 12 0
BBX 10 32 1 -1
BITMAP
3F00
7F80
7F80
7F80
F3C0
F3C0
F3C0
C0C0
C000
C000
C000
C000
C000
C7C0
C7C0
C7C0
C7C0
C0C0
C0C0
C0C0
C0C0
C0C0
C0C0
C0C0
C0C0
F3C0
F3C0
F3C0
7F80
7F80
3F00
3F00
ENDCHAR
STARTCHAR H
ENCODING 72
SWIDTH 292 0
DWIDTH 12 0
BBX 10 32 1 -1
BITMAP
C0C0
C0C0
C0C0
C0C0
C0C0
C0C0
C0C0
C0C0
C0C0
C0C0
C0C0
C0C0
C0C0
FFC0
FFC0
FFC0
FFC0
C0C0
C0C0
C0C0
C0C0
C0C0
C0C0
C0C0
C0C0
C0C0
C0C0
C0C0
C0C0
C0C0
C0C0
C0C0
ENDCHAR
STARTCHAR I
ENCODING 73
SWIDTH 292 0
DWIDTH 12 0
BBX 6 31 3 0
BITMAP
FC
FC
FC
FC
30
30
30
30
30
30
30
30
30
30
30
30
30
30
30
30
30
30
30
30
30
30
30
FC
FC
FC
FC
ENDCHAR
STARTCHAR J
ENCODING 74
SWIDTH 292 0
DWIDTH 12 0
BBX 10 32 1 -1
BITMAP
0FC0
0FC0
0FC0
0FC0
0300
0300
0300
0300
0300
0300
0300
0300
0300
0300
0300
0300
0300
0300
0300
0300
0300
0300
C300
C300
C300
E700
E700
7700
7E00
3C00
3C00
3C00
ENDCHAR
STARTCHAR K
ENCODING 75
SWIDTH 292 0
DWIDTH 12 0
BBX 12 32 1 -1
BITMAP
C030
C030
C0F0
C0F0
C1E0
C1E0
C300
C380
C3C0
CF00
CF00
DE00
DE00
DC00
FC00
FC00
FC00
DC00
DE00
DE00
CF00
CF00
C300
C3C0
C380
C1E0
C1E0
C0F0
C0F0
C0F0
C070
C030
ENDCHAR
STARTCHAR L
ENCODING 76
SWIDTH 292 0
DWIDTH 12 0
BBX 10 31 1 0
BITMAP
C000
C000
C000
C000
C000
C000
C000
C000
C000
C000
C000
C000
C000
C000
C000
C000
C000
C000
C000
C000
C000
C000
C000
C000
C000
C000
C000
FFC0
FFC0
FFC0
FFC0
ENDCHAR
STARTCHAR M
ENCODING 77
SWIDTH 292 0
DWIDTH 12 0
BBX 10 32 1 -1
BITMAP
C0C0
C0C0
C0C0
C0C0
E1C0
F3C0
F3C0
FFC0
FFC0
FFC0
FFC0
DEC0
CCC0
CCC0
CCC0
CCC0
CCC0
C0C0
C0C0
C0C0
C0C0
C0C0
C0C0
C0C0
C0C0
C0C0
C0C0
C0C0
C0C0
C0C0
C0C0
C0C0
ENDCHAR
STARTCHAR N
ENCODING 78
SWIDTH 292 0
DWIDTH 12 0
BBX 10 32 1 -1
BITMAP
C0C0
C0C0
C0C0
C0C0
C0C0
C0C0
C0C0
E0C0
E0C0
E0C0
F0C0
F0C0
D8C0
D8C0
D8C0
CCC0
CCC0
C6C0
C6C0
C6C0
C3C0
C3C0
C1C0
C1C0
C1C0
C0C0
C0C0
C0C0
C0C0
C0C0
C0C0
C0C0
ENDCHAR
STARTCHAR O
ENCODING 79
SWIDTH 292 0
DWIDTH 13 0
BBX 11 32 1 -1
BITMAP
3F80
3F80
7FC0
7FC0
F1E0
F1E0
F1E0
C060
C060
C060
C060
C060
C060
C060
C060
C060
C060
C060
C060
C060
C060
C060
C060
C060
C060
F1E0
F1E0
F1E0
7FC0
7FC0
3F80
3F80
ENDCHAR
STARTCHAR P
ENCODING 80
SWIDTH 292 0
DWIDTH 13 0
BBX 11 32 1 -1
BITMAP
FF80
FF80
FFC0
FFC0
C1E0
C1E0
C060
C060
C060
C060
C060
C1E0
C1E0
FFC0
FFC0
FF80
FF80
C000
C000
C000
C000
C000
C000
C000
C000
C000
C000
C000
C000
C000
C000
C000
ENDCHAR
STARTCHAR Q
ENCODING 81
SWIDTH 292 0
DWIDTH 12 0
BBX 10 31 1 0
BITMAP
3F00
3F00
7F80
7F80
F1C0
F1C0
F1C0
C0C0
C0C0
C0C0
C0C0
C0C0
C0C0
C0C0
C0C0
C0C0
C0C0
CCC0
CCC0
CEC0
CEC0
CEC0
C7C0
C7C0
F380
F380
F380
7FC0
7FC0
3CC0
3CC0
ENDCHAR
STARTCHAR R
ENCODING 82
SWIDTH 292 0
DWIDTH 13 0
BBX 11 32 1 -1
BITMAP
FF80
FF80
FFC0
FFC0
C1E0
C1E0
C060
C060
C060
C060
C060
C1E0
C1E0
FFC0
FFC0
FF80
FF80
DC00
DC00
DE00
CE00
CE00
C780
C780
C7C0
C3C0
C3C0
C1E0
C1E0
C1E0
C060
C060
ENDCHAR
STARTCHAR S
ENCODING 83
SWIDTH 292 0
DWIDTH 13 0
BBX 11 31 1 0
BITMAP
3F80
7FC0
7FC0
7FC0
F1E0
F1E0
F1E0
C060
C000
C000
C000
F000
F000
7F80
7F80
3FC0
3FC0
01E0
01E0
0060
0060
0060
C060
C060
F1C0
F1C0
F1C0
7FC0
7FC0
3F80
3F80
ENDCHAR
STARTCHAR T
ENCODING 84
SWIDTH 292 0
DWIDTH 12 0
BBX 10 32 1 -1
BITMAP
FFC0
FFC0
FFC0
FFC0
0C00
0C00
0C00
0C00
0C00
0C00
0C00
0C00
0C00
0C00
0C00
0C00
0C00
0C00
0C00
0C00
0C00
0C00
0C00
0C00
0C00
0C00
0C00
0C00
0C00
0C00
0C00
0C00
ENDCHAR
STARTCHAR U
ENCODING 85
SWIDTH 292 0
DWIDTH 12 0
BBX 10 32 1 -1
BITMAP
C0C0
C0C0
C0C0
C0C0
C0C0
C0C0
C0C0
C0C0
C0C0
C0C0
C0C0
C0C0
C0C0
C0C0
C0C0
C0C0
C0C0
C0C0
C0C0
C0C0
C0C0
C0C0
C0C0
C0C0
C0C0
E1C0
E1C0
E1C0
7F80
7F80
3F00
3F00
ENDCHAR
STARTCHAR V
ENCODING 86
SWIDTH 292 0
DWIDTH 12 0
BBX 10 32 1 -1
BITMAP
C0C0
C0C0
C0C0
C0C0
C0C0
C0C0
C0C0
C0C0
C0C0
C0C0
C0C0
C0C0
C0C0
C0C0
C0C0
C0C0
C0C0
C0C0
C0C0
C0C0
E1C0
E1C0
7380
7380
7380
3F00
3F00
1E00
1E00
0C00
0C00
0C00
ENDCHAR
STARTCHAR W
ENCODING 87
SWIDTH 292 0
DWIDTH 12 0
BBX 10 32 1 -1
BITMAP
C0C0
C0C0
C0C0
C0C0
C0C0
C0C0
C0C0
C0C0
C0C0
C0C0
C0C0
C0C0
C0C0
CCC0
CCC0
CCC0
CCC0
CCC0
CCC0
CCC0
CCC0
CCC0
CCC0
CCC0
CCC0
FFC0
FFC0
7F80
7F80
7F80
3300
3300
ENDCHAR
STARTCHAR X
ENCODING 88
SWIDTH 292 0
DWIDTH 13 0
BBX 11 30 1 2
BITMAP
C060
C060
C060
C060
C060
C060
E0E0
F1E0
71C0
7BC0
1F00
1F00
0E00
0E00
1F00
1F00
3F80
3B80
71C0
71C0
E0E0
C060
C060
C060
C060
C060
C060
C060
C060
C060
ENDCHAR
STARTCHAR Y
ENCODING 89
SWIDTH 292 0
DWIDTH 12 0
BBX 10 32 1 -1
BITMAP
C0C0
C0C0
C0C0
C0C0
C0C0
C0C0
C0C0
C0C0
C0C0
C0C0
E1C0
E1C0
7380
7380
7F00
3F00
3F00
1E00
1E00
0C00
0C00
0C00
0C00
0C00
0C00
0C00
0C00
0C00
0C00
0C00
0C00
0C00
ENDCHAR
STARTCHAR Z
ENCODING 90
SWIDTH 292 0
DWIDTH 12 0
BBX 10 31 1 0
BITMAP
FFC0
FFC0
FFC0
FFC0
00C0
00C0
01C0
01C0
01C0
0380
0380
0700
0700
0E00
0E00
1E00
1C00
1C00
3800
3800
7000
7000
E000
E000
E000
C000
C000
FFC0
FFC0
FFC0
FFC0
ENDCHAR
STARTCHAR bracketleft
ENCODING 91
SWIDTH 292 0
DWIDTH 12 0
BBX 6 39 3 -1
BITMAP
FC
FC
FC
FC
C0
C0
C0
C0
C0
C0
C0
C0
C0
C0
C0
C0
C0
C0
C0
C0
C0
C0
C0
C0
C0
C0
C0
C0
C0
C0
C0
C0
C0
C0
C0
FC
FC
FC
FC
ENDCHAR
STARTCHAR backslash
ENCODING 92
SWIDTH 292 0
DWIDTH 12 0
BBX 10 32 1 -1
BITMAP
C000
C000
C000
C000
C000
C000
C000
E000
E000
7000
7000
3800
3800
3800
1C00
1C00
0E00
0E00
0700
0700
0700
0380
0380
01C0
01C0
00C0
00C0
00C0
00C0
00C0
00C0
00C0
ENDCHAR
STARTCHAR bracketright
ENCODING 93
SWIDTH 292 0
DWIDTH 12 0
BBX 6 39 3 -1
BITMAP
FC
FC
FC
FC
0C
0C
0C
0C
0C
0C
0C
0C
0C
0C
0C
0C
0C
0C
0C
0C
0C
0C
0C
0C
0C
0C
0C
0C
0C
0C
0C
0C
0C
0C
0C
FC
FC
FC
FC
ENDCHAR
STARTCHAR asciicircum
ENCODING 94
SWIDTH 292 0
DWIDTH 12 0
BBX 10 11 1 20
BITMAP
0C00
0C00
1E00
1E00
3F00
3F00
3F00
7380
7380
E1C0
E1C0
ENDCHAR
STARTCHAR underscore
ENCODING 95
SWIDTH 292 0
DWIDTH 12 0
BBX 12 4 0 0
BITMAP
FFF0
FFF0
FFF0
FFF0
ENDCHAR
STARTCHAR grave
ENCODING 96
SWIDTH 292 0
DWIDTH 12 0
BBX 5 7 4 24
BITMAP
E0
E0
70
70
18
18
18
ENDCHAR
STARTCHAR a
ENCODING 97
SWIDTH 292 0
DWIDTH 12 0
BBX 11 27 1 0
BITMAP
3F80
3F80
3FC0
3FC0
01E0
01E0
0060
0060
3E60
3E60
3E60
7FE0
F1E0
F1E0
F1E0
C060
C060
C060
C060
C060
F1E0
F1E0
F1E0
7FE0
3E60
3E60
3E60
ENDCHAR
STARTCHAR b
ENCODING 98
SWIDTH 292 0
DWIDTH 13 0
BBX 12 32 1 -1
BITMAP
C000
C000
C000
C000
C000
CF00
CF00
DF00
DF00
FFC0
FBC0
FBC0
F0F0
F0F0
E0F0
E0F0
E0F0
E0F0
E0F0
E0F0
E0F0
E0F0
F0F0
F0F0
F0F0
FBC0
FBC0
DF00
DF00
CF00
CF00
CF00
ENDCHAR
STARTCHAR c
ENCODING 99
SWIDTH 292 0
DWIDTH 13 0
BBX 11 26 1 0
BITMAP
3F80
3F80
7FC0
7FC0
FDE0
F1E0
F1E0
C060
C060
C000
C000
C000
C000
C000
C000
C000
C000
C060
C060
F1E0
F1E0
F7E0
7FC0
7FC0
3F80
3F80
ENDCHAR
STARTCHAR d
ENCODING 100
SWIDTH 292 0
DWIDTH 13 0
BBX 11 32 1 -1
BITMAP
0060
0060
0060
0060
0060
1E60
1E60
3E60
3E60
3FE0
7BE0
7BE0
E1E0
E1E0
C1E0
C1E0
C1E0
C1E0
C1E0
C1E0
C1E0
C1E0
E1E0
E1E0
E1E0
7BE0
7BE0
3E60
3E60
1E60
1E60
1E60
ENDCHAR
STARTCHAR e
ENCODING 101
SWIDTH 292 0
DWIDTH 13 0
BBX 11 27 1 0
BITMAP
3800
3F80
3F80
7FC0
7FC0
F1E0
F1E0
C0E0
C0E0
C0E0
C0E0
FFE0
FFC0
FFC0
FFC0
C000
C000
C000
C000
C000
F1E0
F1E0
F3E0
7FC0
3F80
3F80
3F80
ENDCHAR
STARTCHAR f
ENCODING 102
SWIDTH 292 0
DWIDTH 12 0
BBX 8 32 2 -1
BITMAP
0F
0F
1F
1F
18
FF
FF
FF
FF
18
18
18
18
18
18
18
18
18
18
18
18
18
18
18
18
18
18
18
18
18
18
18
ENDCHAR
STARTCHAR g
ENCODING 103
SWIDTH 292 0
DWIDTH 13 0
BBX 11 27 1 0
BITMAP
3FC0
3FC0
3FC0
3FC0
F1E0
F1E0
E1E0
C060
E1E0
F1E0
F1E0
3FE0
1E60
1E60
1E60
0060
0060
0060
0060
0060
31E0
31E0
31E0
3FC0
1F80
1F80
1F80
ENDCHAR
STARTCHAR h
ENCODING 104
SWIDTH 292 0
DWIDTH 12 0
BBX 10 32 1 -1
BITMAP
C000
C000
C000
C000
C000
CE00
CE00
DF00
DF00
FF80
FB80
FB80
F1C0
F1C0
E0C0
E0C0
E0C0
C0C0
C0C0
C0C0
C0C0
C0C0
C0C0
C0C0
C0C0
C0C0
C0C0
C0C0
C0C0
C0C0
C0C0
C0C0
ENDCHAR
STARTCHAR i
ENCODING 105
SWIDTH 292 0
DWIDTH 12 0
BBX 6 32 3 -1
BITMAP
30
30
30
30
00
00
00
00
00
00
F0
F0
F0
F0
30
30
30
30
30
30
30
30
30
30
30
38
38
1C
1C
0C
0C
0C
ENDCHAR
STARTCHAR j
ENCODING 106
SWIDTH 292 0
DWIDTH 12 0
BBX 6 36 3 -1
BITMAP
0C
0C
0C
0C
00
00
00
00
00
3C
3C
3C
3C
0C
0C
0C
0C
0C
0C
0C
0C
0C
0C
0C
0C
0C
0C
0C
0C
1C
1C
1C
F8
F8
F0
F0
ENDCHAR
STARTCHAR k
ENCODING 107
SWIDTH 292 0
DWIDTH 14 0
BBX 12 32 1 -1
BITMAP
C000
C000
C000
C000
C000
C060
C060
C060
C0F0
C0F0
C3C0
C3C0
C3C0
C780
C780
CF00
CF00
CF00
DC00
DC00
FF00
FF00
F780
F780
F700
E3C0
E3C0
C0F0
C0F0
C0F0
C060
C060
ENDCHAR
STARTCHAR l
ENCODING 108
SWIDTH 292 0
DWIDTH 12 0
BBX 2 32 5 -1
BITMAP
C0
C0
C0
C0
C0
C0
C0
C0
C0
C0
C0
C0
C0
C0
C0
C0
C0
C0
C0
C0
C0
C0
C0
C0
C0
C0
C0
C0
C0
C0
C0
C0
ENDCHAR
STARTCHAR m
ENCODING 109
SWIDTH 292 0
DWIDTH 12 0
BBX 10 26 1 0
BITMAP
DF00
DF00
FF80
FF80
EDC0
EDC0
CCC0
CCC0
CCC0
CCC0
CCC0
CCC0
CCC0
CCC0
CCC0
CCC0
CCC0
CCC0
CCC0
CCC0
CCC0
CCC0
CCC0
CCC0
CCC0
CCC0
ENDCHAR
STARTCHAR n
ENCODING 110
SWIDTH 292 0
DWIDTH 12 0
BBX 10 26 1 0
BITMAP
DF00
DF00
FF80
FF80
E1C0
E1C0
C0C0
C0C0
C0C0
C0C0
C0C0
C0C0
C0C0
C0C0
C0C0
C0C0
C0C0
C0C0
C0C0
C0C0
C0C0
C0C0
C0C0
C0C0
C0C0
C0C0
ENDCHAR
STARTCHAR o
ENCODING 111
SWIDTH 292 0
DWIDTH 13 0
BBX 11 26 1 0
BITMAP
3F80
3F80
7FC0
7FC0
F1E0
F1E0
F1E0
C060
C060
C060
C060
C060
C060
C060
C060
C060
C060
C060
C060
F1E0
F1E0
F1E0
7FC0
7FC0
3F80
3F80
ENDCHAR
STARTCHAR p
ENCODING 112
SWIDTH 292 0
DWIDTH 13 0
BBX 11 27 1 0
BITMAP
DF00
DF00
FFC0
FFC0
F1E0
F1E0
F1E0
E0E0
E0E0
E0E0
E0E0
E0E0
E0E0
F1E0
F1E0
F1E0
FFC0
FFC0
DF00
DF00
C000
C000
C000
C000
C000
C000
C000
ENDCHAR
STARTCHAR q
ENCODING 113
SWIDTH 292 0
DWIDTH 12 0
BBX 10 27 1 0
BITMAP
3CC0
3CC0
7FC0
7FC0
F3C0
F3C0
F3C0
C3C0
C3C0
C3C0
C3C0
C3C0
C3C0
F3C0
F3C0
F3C0
7FC0
3FC0
3FC0
3FC0
00C0
00C0
00C0
00C0
00C0
00C0
00C0
ENDCHAR
STARTCHAR r
ENCODING 114
SWIDTH 292 0
DWIDTH 12 0
BBX 10 27 1 0
BITMAP
0300
CF00
CF00
DF80
DF80
FDC0
F9C0
F0C0
F0C0
F0C0
E000
E000
C000
C000
C000
C000
C000
C000
C000
C000
C000
C000
C000
C000
C000
C000
C000
ENDCHAR
STARTCHAR s
ENCODING 115
SWIDTH 292 0
DWIDTH 13 0
BBX 11 26 1 0
BITMAP
3F80
3F80
7FC0
7FC0
F1E0
F1E0
F1E0
F0E0
F0E0
7E00
7E00
7E00
6E80
07C0
07C0
07C0
07C0
E1E0
E1E0
F1E0
F1E0
71E0
7FC0
7FC0
3F80
3F80
ENDCHAR
STARTCHAR t
ENCODING 116
SWIDTH 292 0
DWIDTH 12 0
BBX 6 32 3 -1
BITMAP
30
30
30
30
30
FC
FC
FC
FC
30
30
30
30
30
30
30
30
30
30
30
30
30
30
30
38
38
38
1C
1C
0C
0C
0C
ENDCHAR
STARTCHAR u
ENCODING 117
SWIDTH 292 0
DWIDTH 12 0
BBX 10 27 1 0
BITMAP
C0C0
C0C0
C0C0
C0C0
C0C0
C0C0
C0C0
C0C0
C0C0
C0C0
C0C0
C0C0
C0C0
C0C0
C0C0
C0C0
C0C0
C0C0
C0C0
C0C0
E1C0
E1C0
E1C0
7F80
7F80
3F00
3F00
ENDCHAR
STARTCHAR v
ENCODING 118
SWIDTH 292 0
DWIDTH 12 0
BBX 10 27 1 0
BITMAP
C0C0
C0C0
C0C0
C0C0
C0C0
C0C0
C0C0
C0C0
C0C0
C0C0
C0C0
C0C0
C0C0
C0C0
C0C0
E1C0
E1C0
E1C0
7380
7380
3F00
3F00
1E00
1E00
1E00
0C00
0C00
ENDCHAR
STARTCHAR w
ENCODING 119
SWIDTH 292 0
DWIDTH 12 0
BBX 10 27 1 0
BITMAP
C0C0
C0C0
C0C0
C0C0
C0C0
C0C0
C0C0
C0C0
C0C0
C0C0
C0C0
CCC0
CCC0
CCC0
CCC0
CCC0
CCC0
CCC0
CCC0
CCC0
EDC0
EDC0
EDC0
7F80
7F80
3300
3300
ENDCHAR
STARTCHAR x
ENCODING 120
SWIDTH 292 0
DWIDTH 13 0
BBX 11 27 1 0
BITMAP
0020
C060
C060
E1E0
F1E0
7BC0
7BC0
7BC0
3F80
3F80
0E00
1E00
0400
0400
0400
1E00
1E00
1E00
3F80
3F80
7BC0
7BC0
6BE0
F1E0
F1E0
C060
C040
ENDCHAR
STARTCHAR y
ENCODING 121
SWIDTH 292 0
DWIDTH 13 0
BBX 11 27 1 0
BITMAP
C060
C060
C060
C060
C1E0
C1E0
C1E0
C1E0
C3E0
C3E0
E7E0
E7E0
E7E0
7E60
7E60
3C60
3C60
0060
0060
0060
0060
01E0
01E0
3FC0
3FC0
3F80
3F80
ENDCHAR
STARTCHAR z
ENCODING 122
SWIDTH 292 0
DWIDTH 12 0
BBX 10 26 1 0
BITMAP
FFC0
FFC0
FFC0
FFC0
01C0
01C0
01C0
0380
0380
0780
0700
0700
0E00
0E00
1E00
1C00
1C00
3800
3800
7800
7000
7000
FFC0
FFC0
FFC0
FFC0
ENDCHAR
STARTCHAR braceleft
ENCODING 123
SWIDTH 292 0
DWIDTH 13 0
BBX 7 39 3 -1
BITMAP
1E
1E
1E
1E
1E
1E
1E
38
38
38
38
38
38
38
38
38
38
38
F0
F0
F0
F0
30
30
30
30
30
30
30
30
30
30
3C
3C
0C
0C
0C
0C
0C
ENDCHAR
STARTCHAR bar
ENCODING 124
SWIDTH 292 0
DWIDTH 12 0
BBX 2 39 5 -1
BITMAP
C0
C0
C0
C0
C0
C0
C0
C0
C0
C0
C0
C0
C0
C0
C0
C0
C0
C0
C0
C0
C0
C0
C0
C0
C0
C0
C0
C0
C0
C0
C0
C0
C0
C0
C0
C0
C0
C0
C0
ENDCHAR
STARTCHAR braceright
ENCODING 125
SWIDTH 292 0
DWIDTH 13 0
BBX 7 39 3 -1
BITMAP
F0
F0
F0
F0
F0
F0
F0
30
30
30
30
30
30
30
30
30
30
30
1E
1E
1E
1E
30
30
30
30
30
30
30
30
30
30
F0
F0
F0
F0
F0
F0
F0
ENDCHAR
STARTCHAR asciitilde
ENCODING 126
SWIDTH 292 0
DWIDTH 12 0
BBX 10 8 1 12
BITMAP
3840
3840
7CC0
7CC0
CF80
CF80
8700
8700
ENDCHAR
STARTCHAR space.dup2
ENCODING 160
SWIDTH 292 0
DWIDTH 12 0
BBX 1 1 0 0
BITMAP
00
ENDCHAR
STARTCHAR exclamdown
ENCODING 161
SWIDTH 585 0
DWIDTH 25 0
BBX 4 29 12 2
BITMAP
F0
F0
F0
F0
00
00
00
00
F0
F0
F0
F0
F0
F0
F0
F0
F0
F0
F0
F0
F0
F0
F0
F0
F0
F0
F0
F0
F0
ENDCHAR
STARTCHAR cent
ENCODING 162
SWIDTH 585 0
DWIDTH 24 0
BBX 20 29 2 2
BITMAP
00F000
00F000
00F000
00F000
0FFF00
0FFF00
3FFFC0
3FFFC0
FCF3F0
FCF3F0
F0F0F0
F0F0F0
F0F000
F0F000
F0F000
F0F000
F0F000
F0F0F0
F0F0F0
FCF3F0
FCF3F0
3FFFC0
3FFFC0
0FFF00
0FFF00
00F000
00F000
00F000
00F000
ENDCHAR
STARTCHAR sterling
ENCODING 163
SWIDTH 585 0
DWIDTH 25 0
BBX 20 33 2 2
BITMAP
00FF00
00FF00
03FFC0
03FFC0
0FC3F0
0FC3F0
0F00F0
0F00F0
0F0000
0F0000
0F0000
0F0000
FFFF00
FFFF00
FFFF00
FFFF00
0F0000
0F0000
0F0000
0F0000
0F0000
0F0000
0F0000
0F0000
0F0000
0F0000
0F0000
3C0000
3C0000
FFFFF0
FFFFF0
FFFFF0
FFFFF0
ENDCHAR
STARTCHAR yen
ENCODING 165
SWIDTH 585 0
DWIDTH 25 0
BBX 16 29 4 2
BITMAP
F00F
F00F
F00F
F00F
F00F
F00F
3C3C
3C3C
3C3C
3C3C
0FF0
0FF0
0FF0
0FF0
03C0
03C0
03C0
FFFF
FFFF
03C0
03C0
03C0
03C0
FFFF
FFFF
03C0
03C0
03C0
03C0
ENDCHAR
STARTCHAR brokenbar
ENCODING 166
SWIDTH 585 0
DWIDTH 25 0
BBX 4 33 10 2
BITMAP
F0
F0
F0
F0
F0
F0
F0
F0
F0
F0
F0
F0
F0
F0
00
00
00
00
00
F0
F0
F0
F0
F0
F0
F0
F0
F0
F0
F0
F0
F0
F0
ENDCHAR
STARTCHAR dieresis
ENCODING 168
SWIDTH 585 0
DWIDTH 25 0
BBX 12 4 6 27
BITMAP
F0F0
F0F0
F0F0
F0F0
ENDCHAR
STARTCHAR copyright
ENCODING 169
SWIDTH 585 0
DWIDTH 25 0
BBX 21 23 2 6
BITMAP
0FFF80
0FFF80
3C03C0
3C03C0
F0FC78
F0FC78
C3C038
C3C038
C30038
C30038
C30038
C30038
C30038
C30038
C30038
C3C038
C3C038
F0FC78
F0FC78
3C03C0
3C03C0
0FFF80
0FFF80
ENDCHAR
STARTCHAR ordfeminine
ENCODING 170
SWIDTH 585 0
DWIDTH 25 0
BBX 14 23 4 8
BITMAP
3FF0
3FF0
F03C
F03C
003C
003C
3FFC
3FFC
F03C
F03C
C03C
C03C
C03C
F03C
F03C
3FCC
3FCC
0000
0000
FFFC
FFFC
FFFC
FFFC
ENDCHAR
STARTCHAR guillemotleft
ENCODING 171
SWIDTH 585 0
DWIDTH 24 0
BBX 20 19 2 6
BITMAP
00C030
00C030
03C0F0
03C0F0
0F03C0
0F03C0
3C0F00
3C0F00
B42E00
F03C00
F03C00
3C0F00
3C0F00
0F03C0
0F03C0
03C0F0
03C0F0
00C030
00C030
ENDCHAR
STARTCHAR hyphen.dup3
ENCODING 173
SWIDTH 292 0
DWIDTH 12 0
BBX 8 4 2 14
BITMAP
FF
FF
FF
FF
ENDCHAR
STARTCHAR registered
ENCODING 174
SWIDTH 585 0
DWIDTH 25 0
BBX 21 21 2 10
BITMAP
0FFF80
0FFF80
3C03C0
3C03C0
F3F078
F3F078
C30C38
C30C38
C30C38
C30C38
C30C38
C3F038
C3F038
C30C38
C30C38
F30C78
F30C78
3C03C0
3C03C0
0FFF80
0FFF80
ENDCHAR
STARTCHAR degree
ENCODING 176
SWIDTH 585 0
DWIDTH 25 0
BBX 16 17 2 14
BITMAP
0FF0
0FF0
3FFC
3FFC
FC3F
FC3F
F00F
F00F
F00F
F00F
F00F
FC3F
3FFE
3FFC
3FFC
0FF0
0FF0
ENDCHAR
STARTCHAR uni00B2
ENCODING 178
SWIDTH 585 0
DWIDTH 24 0
BBX 10 14 6 21
BITMAP
3F00
3F00
F3C0
F3C0
03C0
03C0
3F00
3F00
F000
F000
F000
F000
FFC0
FFC0
ENDCHAR
STARTCHAR uni00B3
ENCODING 179
SWIDTH 585 0
DWIDTH 24 0
BBX 10 14 6 21
BITMAP
3F00
3F00
F3C0
F3C0
03C0
03C0
0F00
0F00
03C0
03C0
F3C0
F3C0
3F00
3F00
ENDCHAR
STARTCHAR acute
ENCODING 180
SWIDTH 585 0
DWIDTH 25 0
BBX 10 6 8 25
BITMAP
0FC0
0FC0
3F00
3F00
F000
F000
ENDCHAR
STARTCHAR uni00B9
ENCODING 185
SWIDTH 585 0
DWIDTH 25 0
BBX 8 14 8 21
BITMAP
3C
3C
FC
FC
3C
3C
3C
3C
3C
3C
3C
3C
FF
FF
ENDCHAR
STARTCHAR ordmasculine
ENCODING 186
SWIDTH 585 0
DWIDTH 25 0
BBX 14 23 4 8
BITMAP
0FC0
0FC0
3FF0
3FF0
F03C
F03C
F03C
F03C
F03C
F03C
F03C
F03C
3E30
3FF0
3FC0
0FC0
0FC0
0000
0000
FFFC
FFFC
FFFC
FFFC
ENDCHAR
STARTCHAR guillemotright
ENCODING 187
SWIDTH 585 0
DWIDTH 25 0
BBX 20 19 2 6
BITMAP
C03000
C03000
F03C00
F03C00
B80E00
3C0F00
2E0380
0F03C0
0F03C0
03C0F0
03C0F0
0F03C0
0F03C0
3C0F00
3C0F00
F03C00
F03C00
C03000
C03000
ENDCHAR
STARTCHAR onequarter
ENCODING 188
SWIDTH 585 0
DWIDTH 25 0
BBX 20 33 2 2
BITMAP
3C00C0
3C00C0
FC03C0
FC03C0
3C0300
3C0300
3C0F00
3C0F00
3C0C00
3C0C00
3C3C00
3C3C00
FF3000
FF3000
00F000
00F000
03F000
03C000
03C000
0303C0
0303C0
0F0FC0
0F0FC0
0C0CC0
0C0CC0
3C3CC0
3C3CC0
303FF0
303FF0
F000C0
F000C0
C000C0
C000C0
ENDCHAR
STARTCHAR onehalf
ENCODING 189
SWIDTH 585 0
DWIDTH 25 0
BBX 20 33 2 2
BITMAP
3C00C0
3C00C0
FC03C0
FC03C0
3C0300
3C0300
3C0F00
3C0F00
3C0C00
3C0C00
3C3C00
3C3C00
FF3000
FF3000
00F000
00F000
03F000
03C000
03C000
030FC0
030FC0
0F3CF0
0F3CF0
0C00F0
0C00F0
3C0FC0
3C0FC0
303C00
303C00
F03C00
F03C00
C03FF0
C03FF0
ENDCHAR
STARTCHAR threequarters
ENCODING 190
SWIDTH 585 0
DWIDTH 25 0
BBX 20 33 2 2
BITMAP
3F0030
3F0030
F3C0F0
F3C0F0
03C0C0
03C0C0
0F03C0
0F03C0
03C300
03C300
F3CF00
F3CF00
3F0C00
3F0C00
003C00
003C00
00FC00
00F000
00F000
00C3C0
00C3C0
03CFC0
03CFC0
030CC0
030CC0
0F3CC0
0F3CC0
0C3FF0
0C3FF0
3C00C0
3C00C0
3000C0
3000C0
ENDCHAR
STARTCHAR questiondown
ENCODING 191
SWIDTH 585 0
DWIDTH 25 0
BBX 20 29 2 2
BITMAP
00F000
00F000
00F000
00F000
000000
000000
000000
000000
000000
00F000
00F000
03F000
03F000
0FC000
0FC000
3F0000
3F0000
FC0000
FC0000
F00000
F00000
F000F0
F000F0
FC03F0
FC03F0
3FFFC0
3FFFC0
0FFF00
0FFF00
ENDCHAR
STARTCHAR Agrave
ENCODING 192
SWIDTH 585 0
DWIDTH 25 0
BBX 21 33 2 2
BITMAP
0FC000
0FC000
03F000
03F000
003C00
003C00
000000
000000
00F000
00F000
03FC00
03FC00
03FC00
0FFF80
3F0FE0
3F0FE0
FC03F8
FC03F8
FC03F8
F00078
F00078
F00078
F00078
FFFFF8
FFFFF8
FFFFF8
FFFFF8
F00078
F00078
F00078
F00078
F00078
F00078
ENDCHAR
STARTCHAR Aacute
ENCODING 193
SWIDTH 585 0
DWIDTH 25 0
BBX 21 33 2 2
BITMAP
003F80
003F80
00FC00
00FC00
03C000
03C000
000000
000000
00F000
00F000
03FC00
03FC00
03FC00
0FFF80
3F0FE0
3F0FE0
FC03F8
FC03F8
FC03F8
F00078
F00078
F00078
F00078
FFFFF8
FFFFF8
FFFFF8
FFFFF8
F00078
F00078
F00078
F00078
F00078
F00078
ENDCHAR
STARTCHAR Acircumflex
ENCODING 194
SWIDTH 585 0
DWIDTH 25 0
BBX 20 33 2 2
BITMAP
00F000
00F000
03FC00
03FC00
0F0F00
0F0F00
000000
000000
00F000
00F000
03FC00
03FC00
03FC00
0FFF00
3F0FC0
3F0FC0
FC03F0
FC03F0
FC03F0
F000F0
F000F0
F000F0
F000F0
FFFFF0
FFFFF0
FFFFF0
FFFFF0
F000F0
F000F0
F000F0
F000F0
F000F0
F000F0
ENDCHAR
STARTCHAR Atilde
ENCODING 195
SWIDTH 585 0
DWIDTH 25 0
BBX 20 33 2 2
BITMAP
03C300
03C300
0FFF00
0FFF00
0C3C00
0C3C00
000000
000000
00F000
00F000
03FC00
03FC00
03FC00
0FFF00
3F0FC0
3F0FC0
FC03F0
FC03F0
FC03F0
F000F0
F000F0
F000F0
F000F0
FFFFF0
FFFFF0
FFFFF0
FFFFF0
F000F0
F000F0
F000F0
F000F0
F000F0
F000F0
ENDCHAR
STARTCHAR Adieresis
ENCODING 196
SWIDTH 585 0
DWIDTH 25 0
BBX 20 33 2 2
BITMAP
0F0F00
0F0F00
0F0F00
0F0F00
000000
000000
000000
000000
00F000
00F000
03FC00
03FC00
03FC00
0FFF00
3F0FC0
3F0FC0
FC03F0
FC03F0
FC03F0
F000F0
F000F0
F000F0
F000F0
FFFFF0
FFFFF0
FFFFF0
FFFFF0
F000F0
F000F0
F000F0
F000F0
F000F0
F000F0
ENDCHAR
STARTCHAR Aring
ENCODING 197
SWIDTH 585 0
DWIDTH 25 0
BBX 21 33 2 2
BITMAP
00F000
00F000
030C00
030C00
030C00
030C00
00F000
00F000
00F000
00F000
03FC00
03FC00
03FC00
0FFF80
3F0FE0
3F0FE0
FC03F8
FC03F8
FC03F8
F00078
F00078
F00078
F00078
FFFFF8
FFFFF8
FFFFF8
FFFFF8
F00078
F00078
F00078
F00078
F00078
F00078
ENDCHAR
STARTCHAR AE
ENCODING 198
SWIDTH 585 0
DWIDTH 25 0
BBX 20 31 2 2
BITMAP
003FF0
003FF0
00FFF0
00FFF0
03FC00
03FC00
0FFC00
0FFC00
3FFC00
3F3C00
3F3C00
3C3C00
3C3C00
F03FF0
F03FF0
F03FF0
F03FF0
F03C00
F03C00
FFFC00
FFFC00
FFFC00
FFFC00
F03C00
F03C00
F03C00
F03C00
F03FF0
F03FF0
F03FF0
F03FF0
ENDCHAR
STARTCHAR Ccedilla
ENCODING 199
SWIDTH 585 0
DWIDTH 24 0
BBX 21 29 2 2
BITMAP
0FFF00
0FFF00
3FFFC0
3FFFC0
FC03F0
FC03F0
F000F0
F000F0
F00000
F00000
F00000
F00000
F00000
F00000
F00000
F000F0
F000F0
FC03F0
FC03F8
3FFFC0
3FFFC0
0FFF00
0FFF00
00FC00
00FC00
03F000
03F000
0FC000
0FC000
ENDCHAR
STARTCHAR Egrave
ENCODING 200
SWIDTH 585 0
DWIDTH 25 0
BBX 20 33 2 2
BITMAP
0FC000
0FC000
03F000
03F000
003C00
003C00
000000
000000
FFFFF0
FFFFF0
FFFFF0
FFFFF0
F00000
F00000
F00000
F00000
F00000
F00000
F00000
FFFF00
FFFF00
FFFF00
FFFF00
F00000
F00000
F00000
F00000
F00000
F00000
FFFFF0
FFFFF0
FFFFF0
FFFFF0
ENDCHAR
STARTCHAR Eacute
ENCODING 201
SWIDTH 585 0
DWIDTH 25 0
BBX 20 33 2 2
BITMAP
003F00
003F00
00FC00
00FC00
03C000
03C000
000000
000000
FFFFF0
FFFFF0
FFFFF0
FFFFF0
F00000
F00000
F00000
F00000
F00000
F00000
F00000
FFFF00
FFFF00
FFFF00
FFFF00
F00000
F00000
F00000
F00000
F00000
F00000
FFFFF0
FFFFF0
FFFFF0
FFFFF0
ENDCHAR
STARTCHAR Ecircumflex
ENCODING 202
SWIDTH 585 0
DWIDTH 25 0
BBX 20 33 2 2
BITMAP
00F000
00F000
03FC00
03FC00
0F0F00
0F0F00
000000
000000
FFFFF0
FFFFF0
FFFFF0
FFFFF0
F00000
F00000
F00000
F00000
F00000
F00000
F00000
FFFF00
FFFF00
FFFF00
FFFF00
F00000
F00000
F00000
F00000
F00000
F00000
FFFFF0
FFFFF0
FFFFF0
FFFFF0
ENDCHAR
STARTCHAR Edieresis
ENCODING 203
SWIDTH 585 0
DWIDTH 25 0
BBX 20 33 2 2
BITMAP
0F0F00
0F0F00
0F0F00
0F0F00
000000
000000
000000
000000
FFFFF0
FFFFF0
FFFFF0
FFFFF0
F00000
F00000
F00000
F00000
F00000
F00000
F00000
FFFF00
FFFF00
FFFF00
FFFF00
F00000
F00000
F00000
F00000
F00000
F00000
FFFFF0
FFFFF0
FFFFF0
FFFFF0
ENDCHAR
STARTCHAR Igrave
ENCODING 204
SWIDTH 585 0
DWIDTH 25 0
BBX 12 33 6 2
BITMAP
FC00
FC00
3F00
3F00
03C0
03C0
0000
0000
FFF0
FFF0
FFF0
FFF0
0F00
0F00
0F00
0F00
0F00
0F00
0F00
0F00
0F00
0F00
0F00
0F00
0F00
0F00
0F00
0F00
0F00
FFF0
FFF0
FFF0
FFF0
ENDCHAR
STARTCHAR Iacute
ENCODING 205
SWIDTH 585 0
DWIDTH 25 0
BBX 12 33 6 2
BITMAP
03F0
03F0
0FC0
0FC0
3C00
3C00
0000
0000
FFF0
FFF0
FFF0
FFF0
0F00
0F00
0F00
0F00
0F00
0F00
0F00
0F00
0F00
0F00
0F00
0F00
0F00
0F00
0F00
0F00
0F00
FFF0
FFF0
FFF0
FFF0
ENDCHAR
STARTCHAR Icircumflex
ENCODING 206
SWIDTH 585 0
DWIDTH 25 0
BBX 12 33 6 2
BITMAP
0F00
0F00
3FC0
3FC0
F0F0
F0F0
0000
0000
FFF0
FFF0
FFF0
FFF0
0F00
0F00
0F00
0F00
0F00
0F00
0F00
0F00
0F00
0F00
0F00
0F00
0F00
0F00
0F00
0F00
0F00
FFF0
FFF0
FFF0
FFF0
ENDCHAR
STARTCHAR Idieresis
ENCODING 207
SWIDTH 585 0
DWIDTH 24 0
BBX 12 33 6 2
BITMAP
F0F0
F0F0
F0F0
F0F0
0000
0000
0000
0000
FFF0
FFF0
FFF0
FFF0
0F00
0F00
0F00
0F00
0F00
0F00
0F00
0F00
0F00
0F00
0F00
0F00
0F00
0F00
0F00
0F00
0F00
FFF0
FFF0
FFF0
FFF0
ENDCHAR
STARTCHAR Eth
ENCODING 208
SWIDTH 585 0
DWIDTH 24 0
BBX 20 29 2 2
BITMAP
3FFF00
3FFF00
3FFFC0
3FFFC0
3C03F0
3C03F0
3C00F0
3C00F0
3C00F0
3C00F0
3C00F0
3C00F0
3C00F0
FFC0F0
FFC0F0
FFC0F0
FFC0F0
3C00F0
3C00F0
3C00F0
3C00F0
3C00F0
3C00F0
3C03F0
3C03F0
3FFFC0
3FFFC0
3FFF00
3FFF00
ENDCHAR
STARTCHAR Ntilde
ENCODING 209
SWIDTH 585 0
DWIDTH 25 0
BBX 20 33 2 2
BITMAP
03C300
03C300
0FFF00
0FFF00
0C3C00
0C3C00
000000
000000
F000F0
F000F0
F000F0
F000F0
FC00F0
FC00F0
FF00F0
FF00F0
FFC0F0
FFC0F0
FFF0F0
F3F0F0
F3FCF0
F0FCF0
F0FFF0
F03FF0
F03FF0
F00FF0
F00FF0
F003F0
F003F0
F000F0
F000F0
F000F0
F000F0
ENDCHAR
STARTCHAR Ograve
ENCODING 210
SWIDTH 585 0
DWIDTH 24 0
BBX 20 33 2 2
BITMAP
0FC000
0FC000
03F000
03F000
003C00
003C00
000000
000000
0FFF00
0FFF00
3FFFC0
3FFFC0
FC03F0
FC03F0
F000F0
F000F0
F000F0
F000F0
F000F0
F000F0
F000F0
F000F0
F000F0
F000F0
F000F0
F000F0
F000F0
FC03F0
FC03F0
3FFFC0
3FFFC0
0FFF00
0FFF00
ENDCHAR
STARTCHAR Oacute
ENCODING 211
SWIDTH 585 0
DWIDTH 24 0
BBX 20 33 2 2
BITMAP
003F00
003F00
00FC00
00FC00
03C000
03C000
000000
000000
0FFF00
0FFF00
3FFFC0
3FFFC0
FC03F0
FC03F0
F000F0
F000F0
F000F0
F000F0
F000F0
F000F0
F000F0
F000F0
F000F0
F000F0
F000F0
F000F0
F000F0
FC03F0
FC03F0
3FFFC0
3FFFC0
0FFF00
0FFF00
ENDCHAR
STARTCHAR Ocircumflex
ENCODING 212
SWIDTH 585 0
DWIDTH 24 0
BBX 20 33 2 2
BITMAP
00F000
00F000
03FC00
03FC00
0F0F00
0F0F00
000000
000000
0FFF00
0FFF00
3FFFC0
3FFFC0
FC03F0
FC03F0
F000F0
F000F0
F000F0
F000F0
F000F0
F000F0
F000F0
F000F0
F000F0
F000F0
F000F0
F000F0
F000F0
FC03F0
FC03F0
3FFFC0
3FFFC0
0FFF00
0FFF00
ENDCHAR
STARTCHAR Otilde
ENCODING 213
SWIDTH 585 0
DWIDTH 25 0
BBX 20 33 2 2
BITMAP
03C300
03C300
0FFF00
0FFF00
0C3C00
0C3C00
000000
000000
0FFF00
0FFF00
3FFFC0
3FFFC0
FC03F0
FC03F0
F000F0
F000F0
F000F0
F000F0
F000F0
F000F0
F000F0
F000F0
F000F0
F000F0
F000F0
F000F0
F000F0
FC03F0
FC03F0
3FFFC0
3FFFC0
0FFF00
0FFF00
ENDCHAR
STARTCHAR Odieresis
ENCODING 214
SWIDTH 585 0
DWIDTH 24 0
BBX 20 33 2 2
BITMAP
0F0F00
0F0F00
0F0F00
0F0F00
000000
000000
000000
000000
0FFF00
0FFF00
3FFFC0
3FFFC0
FC03F0
FC03F0
F000F0
F000F0
F000F0
F000F0
F000F0
F000F0
F000F0
F000F0
F000F0
F000F0
F000F0
F000F0
F000F0
FC03F0
FC03F0
3FFFC0
3FFFC0
0FFF00
0FFF00
ENDCHAR
STARTCHAR Oslash
ENCODING 216
SWIDTH 585 0
DWIDTH 25 0
BBX 21 29 2 2
BITMAP
0FFC78
0FFC78
3FFFF8
3FFFF8
FC0FC0
FC0FC0
F00FF8
F00FF8
F03FF8
F03C78
F03C78
F03C78
F0FC78
F0F078
F0F078
F0F078
F3F078
F3C078
F3C078
F3C078
FFC078
FF0078
FF0078
3F03F8
3F03F8
FFFFC0
FFFFC0
F3FF80
F3FF80
ENDCHAR
STARTCHAR Ugrave
ENCODING 217
SWIDTH 585 0
DWIDTH 24 0
BBX 20 33 2 2
BITMAP
0FC000
0FC000
03F000
03F000
003C00
003C00
000000
000000
F000F0
F000F0
F000F0
F000F0
F000F0
F000F0
F000F0
F000F0
F000F0
F000F0
F000F0
F000F0
F000F0
F000F0
F000F0
F000F0
F000F0
F000F0
F000F0
FC03F0
FC03F0
3FFFC0
3FFFC0
0FFF00
0FFF00
ENDCHAR
STARTCHAR Uacute
ENCODING 218
SWIDTH 585 0
DWIDTH 24 0
BBX 20 33 2 2
BITMAP
003F00
003F00
00FC00
00FC00
03C000
03C000
000000
000000
F000F0
F000F0
F000F0
F000F0
F000F0
F000F0
F000F0
F000F0
F000F0
F000F0
F000F0
F000F0
F000F0
F000F0
F000F0
F000F0
F000F0
F000F0
F000F0
FC03F0
FC03F0
3FFFC0
3FFFC0
0FFF00
0FFF00
ENDCHAR
STARTCHAR Ucircumflex
ENCODING 219
SWIDTH 585 0
DWIDTH 24 0
BBX 20 33 2 2
BITMAP
00F000
00F000
03FC00
03FC00
0F0F00
0F0F00
000000
000000
F000F0
F000F0
F000F0
F000F0
F000F0
F000F0
F000F0
F000F0
F000F0
F000F0
F000F0
F000F0
F000F0
F000F0
F000F0
F000F0
F000F0
F000F0
F000F0
FC03F0
FC03F0
3FFFC0
3FFFC0
0FFF00
0FFF00
ENDCHAR
STARTCHAR Udieresis
ENCODING 220
SWIDTH 585 0
DWIDTH 25 0
BBX 20 33 2 2
BITMAP
0F0F00
0F0F00
0F0F00
0F0F00
000000
000000
000000
000000
F000F0
F000F0
F000F0
F000F0
F000F0
F000F0
F000F0
F000F0
F000F0
F000F0
F000F0
F000F0
F000F0
F000F0
F000F0
F000F0
F000F0
F000F0
F000F0
FC03F0
FC03F0
3FFFC0
3FFFC0
0FFF00
0FFF00
ENDCHAR
STARTCHAR Yacute
ENCODING 221
SWIDTH 585 0
DWIDTH 25 0
BBX 21 33 2 2
BITMAP
003F80
003F80
00FC00
00FC00
03C000
03C000
000000
000000
F00078
F00078
F00078
F00078
F00078
F00078
F00078
FC03F8
3F0FE0
3F0FE0
0FFF80
0FFF80
0FFF80
03FC00
00F000
00F000
00F000
00F000
00F000
00F000
00F000
00F000
00F000
00F000
00F000
ENDCHAR
STARTCHAR Thorn
ENCODING 222
SWIDTH 585 0
DWIDTH 24 0
BBX 20 31 2 2
BITMAP
F00000
F00000
F00000
F00000
F00000
F00000
FFFF00
FFFF00
FFFFC0
FFFFC0
F003F0
F003F0
F000F0
F000F0
F000F0
F000F0
F000F0
F000F0
F000F0
F003F0
F003F0
FFFFC0
FFFFC0
FFFF00
FFFF00
F00000
F00000
F00000
F00000
F00000
F00000
ENDCHAR
STARTCHAR germandbls
ENCODING 223
SWIDTH 585 0
DWIDTH 25 0
BBX 18 33 2 2
BITMAP
0F0000
0F0000
3FF000
3FF000
FCFC00
FCFC00
F03C00
F03C00
F03C00
F03C00
F03C00
F03C00
F0F000
F0F000
F0F000
F0F000
F0F000
F0F000
F0FC00
F0FC00
F0FC00
F03F00
F03F00
F00FC0
F00FC0
F003C0
F003C0
F003C0
F003C0
F3FFC0
F3FFC0
F3FF00
F3FF00
ENDCHAR
STARTCHAR agrave
ENCODING 224
SWIDTH 585 0
DWIDTH 25 0
BBX 20 29 2 2
BITMAP
0FC000
0FC000
03F000
03F000
003C00
003C00
000000
000000
0FFF00
0FFF00
0FFFC0
0FFFC0
0000F0
0000F0
0000F0
0FFCF0
0FFCF0
3FFFF0
3FFFF0
FC03F0
FC03F0
F000F0
F000F0
FC03F0
FC03F0
3FFFF0
3FFFF0
0FFCF0
0FFCF0
ENDCHAR
STARTCHAR aacute
ENCODING 225
SWIDTH 585 0
DWIDTH 25 0
BBX 20 29 2 2
BITMAP
003F00
003F00
00FC00
00FC00
03C000
03C000
000000
000000
0FFF00
0FFF00
0FFFC0
0FFFC0
0000F0
0000F0
0000F0
0FFCF0
0FFCF0
3FFFF0
3FFFF0
FC03F0
FC03F0
F000F0
F000F0
FC03F0
FC03F0
3FFFF0
3FFFF0
0FFCF0
0FFCF0
ENDCHAR
STARTCHAR acircumflex
ENCODING 226
SWIDTH 585 0
DWIDTH 25 0
BBX 20 29 2 2
BITMAP
00F000
00F000
03FC00
03FC00
0F0F00
0F0F00
000000
000000
0FFF00
0FFF00
0FFFC0
0FFFC0
0000F0
0000F0
0000F0
0FFCF0
0FFCF0
3FFFF0
3FFFF0
FC03F0
FC03F0
F000F0
F000F0
FC03F0
FC03F0
3FFFF0
3FFFF0
0FFCF0
0FFCF0
ENDCHAR
STARTCHAR atilde
ENCODING 227
SWIDTH 585 0
DWIDTH 25 0
BBX 20 29 2 2
BITMAP
03C300
03C300
0FFF00
0FFF00
0C3C00
0C3C00
000000
000000
0FFF00
0FFF00
0FFFC0
0FFFC0
0000F0
0000F0
0000F0
0FFCF0
0FFCF0
3FFFF0
3FFFF0
FC03F0
FC03F0
F000F0
F000F0
FC03F0
FC03F0
3FFFF0
3FFFF0
0FFCF0
0FFCF0
ENDCHAR
STARTCHAR adieresis
ENCODING 228
SWIDTH 585 0
DWIDTH 24 0
BBX 20 29 2 2
BITMAP
0F0F00
0F0F00
0F0F00
0F0F00
000000
000000
000000
000000
0FFF00
0FFF00
0FFFC0
0FFFC0
0000F0
0000F0
0000F0
0FFCF0
0FFCF0
3FFFF0
3FFFF0
FC03F0
FC03F0
F000F0
F000F0
FC03F0
FC03F0
3FFFF0
3FFFF0
0FFCF0
0FFCF0
ENDCHAR
STARTCHAR aring
ENCODING 229
SWIDTH 585 0
DWIDTH 25 0
BBX 20 29 2 2
BITMAP
00F000
00F000
030C00
030C00
030C00
030C00
00F000
00F000
0FFF00
0FFF00
0FFFC0
0FFFC0
0000F0
0000F0
0000F0
0FFCF0
0FFCF0
3FFFF0
3FFFF0
FC03F0
FC03F0
F000F0
F000F0
FC03F0
FC03F0
3FFFF0
3FFFF0
0FFCF0
0FFCF0
ENDCHAR
STARTCHAR ae
ENCODING 230
SWIDTH 585 0
DWIDTH 25 0
BBX 21 23 2 2
BITMAP
FF0FC0
FF0FC0
FF0FC0
FFFFF8
00F078
00F078
00F078
00F078
00F078
3FFFF8
3FFFF8
FFFFF8
FFFFF8
F0F000
F0F000
F0F000
F0F000
F0F000
F0F000
FFFFC0
FFFFC0
3FCFC0
3FCFC0
ENDCHAR
STARTCHAR ccedilla
ENCODING 231
SWIDTH 585 0
DWIDTH 24 0
BBX 20 27 2 2
BITMAP
0FFF00
0FFF00
3FFFC0
3FFFC0
FC03F0
FC03F0
F000F0
F000F0
F00000
F00000
F00000
F00000
F00000
F000F0
F000F0
FC03F0
FC03F0
3FFFC0
3FFFC0
0FFF00
0FFF00
00FC00
00FC00
03F000
03F000
0FC000
0FC000
ENDCHAR
STARTCHAR egrave
ENCODING 232
SWIDTH 585 0
DWIDTH 24 0
BBX 20 29 2 2
BITMAP
0FC000
0FC000
03F000
03F000
003C00
003C00
000000
000000
0FC000
0FFF00
0FFF00
3FFFC0
FC03F0
FC03F0
FC03F0
F000F0
F000F0
FFFFF0
FFFFF0
FFFFC0
FFFFC0
F00000
F00000
FC03F0
FC03F0
3FFFC0
3FFFC0
0FFF00
0FFF00
ENDCHAR
STARTCHAR eacute
ENCODING 233
SWIDTH 585 0
DWIDTH 24 0
BBX 20 29 2 2
BITMAP
003F00
003F00
00FC00
00FC00
03C000
03C000
000000
000000
0FC000
0FFF00
0FFF00
3FFFC0
FC03F0
FC03F0
FC03F0
F000F0
F000F0
FFFFF0
FFFFF0
FFFFC0
FFFFC0
F00000
F00000
FC03F0
FC03F0
3FFFC0
3FFFC0
0FFF00
0FFF00
ENDCHAR
STARTCHAR ecircumflex
ENCODING 234
SWIDTH 585 0
DWIDTH 24 0
BBX 20 29 2 2
BITMAP
00F000
00F000
03FC00
03FC00
0F0F00
0F0F00
000000
000000
0FC000
0FFF00
0FFF00
3FFFC0
FC03F0
FC03F0
FC03F0
F000F0
F000F0
FFFFF0
FFFFF0
FFFFC0
FFFFC0
F00000
F00000
FC03F0
FC03F0
3FFFC0
3FFFC0
0FFF00
0FFF00
ENDCHAR
STARTCHAR edieresis
ENCODING 235
SWIDTH 585 0
DWIDTH 24 0
BBX 20 29 2 2
BITMAP
0F0F00
0F0F00
0F0F00
0F0F00
000000
000000
000000
000000
0FC000
0FFF00
0FFF00
3FFFC0
FC03F0
FC03F0
FC03F0
F000F0
F000F0
FFFFF0
FFFFF0
FFFFC0
FFFFC0
F00000
F00000
FC03F0
FC03F0
3FFFC0
3FFFC0
0FFF00
0FFF00
ENDCHAR
STARTCHAR igrave
ENCODING 236
SWIDTH 585 0
DWIDTH 25 0
BBX 14 29 4 2
BITMAP
FC00
FC00
3F00
3F00
03C0
03C0
0000
0000
0000
0000
0000
3FC0
3FC0
3FC0
3FC0
03C0
03C0
03C0
03C0
03C0
03C0
03C0
03C0
03F0
03F0
00FC
00FC
003C
003C
ENDCHAR
STARTCHAR iacute
ENCODING 237
SWIDTH 585 0
DWIDTH 25 0
BBX 12 29 6 2
BITMAP
03F0
03F0
0FC0
0FC0
3C00
3C00
0000
0000
0000
0000
0000
FF00
FF00
FF00
FF00
0F00
0F00
0F00
0F00
0F00
0F00
0F00
0F00
0FC0
0FC0
03F0
03F0
00F0
00F0
ENDCHAR
STARTCHAR icircumflex
ENCODING 238
SWIDTH 585 0
DWIDTH 25 0
BBX 14 29 4 2
BITMAP
0F00
0F00
3FC0
3FC0
F0F0
F0F0
0000
0000
0000
0000
0000
3FC0
3FC0
3FC0
3FC0
03C0
03C0
03C0
03C0
03C0
03C0
03C0
03C0
03F0
03F0
00FC
00FC
003C
003C
ENDCHAR
STARTCHAR idieresis
ENCODING 239
SWIDTH 585 0
DWIDTH 25 0
BBX 14 29 4 2
BITMAP
F0F0
F0F0
F0F0
F0F0
0000
0000
0000
0000
0000
0000
0000
3FC0
3FC0
3FC0
3FC0
03C0
03C0
03C0
03C0
03C0
03C0
03C0
03C0
03F0
03F0
00FC
00FC
003C
003C
ENDCHAR
STARTCHAR eth
ENCODING 240
SWIDTH 585 0
DWIDTH 24 0
BBX 20 31 2 2
BITMAP
0003C0
0003C0
0003C0
0003C0
03FFF0
03FFF0
03FFF0
03FFF0
0003C0
0003C0
0FFFC0
0FFFC0
3FFFC0
3FFFC0
FC03C0
FC03C0
F003C0
F003C0
F003C0
F003C0
F003C0
F003C0
F003C0
F003C0
F003C0
FC0FC0
FC0FC0
3FFF00
3FFF00
0FFC00
0FFC00
ENDCHAR
STARTCHAR ntilde
ENCODING 241
SWIDTH 585 0
DWIDTH 25 0
BBX 20 29 2 2
BITMAP
03C300
03C300
0FFF00
0FFF00
0C3C00
0C3C00
000000
000000
F3FF00
F3FF00
F3FF00
FFFFC0
FC03F0
FC03F0
FC03F0
F000F0
F000F0
F000F0
F000F0
F000F0
F000F0
F000F0
F000F0
F000F0
F000F0
F000F0
F000F0
F000F0
F000F0
ENDCHAR
STARTCHAR ograve
ENCODING 242
SWIDTH 585 0
DWIDTH 24 0
BBX 20 29 2 2
BITMAP
0FC000
0FC000
03F000
03F000
003C00
003C00
000000
000000
0FFF00
0FFF00
3FFFC0
3FFFC0
FC03F0
FC03F0
F000F0
F000F0
F000F0
F000F0
F000F0
F000F0
F000F0
F000F0
F000F0
FC03F0
FC03F0
3FFFC0
3FFFC0
0FFF00
0FFF00
ENDCHAR
STARTCHAR oacute
ENCODING 243
SWIDTH 585 0
DWIDTH 24 0
BBX 20 29 2 2
BITMAP
003F00
003F00
00FC00
00FC00
03C000
03C000
000000
000000
0FFF00
0FFF00
3FFFC0
3FFFC0
FC03F0
FC03F0
F000F0
F000F0
F000F0
F000F0
F000F0
F000F0
F000F0
F000F0
F000F0
FC03F0
FC03F0
3FFFC0
3FFFC0
0FFF00
0FFF00
ENDCHAR
STARTCHAR ocircumflex
ENCODING 244
SWIDTH 585 0
DWIDTH 24 0
BBX 20 29 2 2
BITMAP
00F000
00F000
03FC00
03FC00
0F0F00
0F0F00
000000
000000
0FFF00
0FFF00
3FFFC0
3FFFC0
FC03F0
FC03F0
F000F0
F000F0
F000F0
F000F0
F000F0
F000F0
F000F0
F000F0
F000F0
FC03F0
FC03F0
3FFFC0
3FFFC0
0FFF00
0FFF00
ENDCHAR
STARTCHAR otilde
ENCODING 245
SWIDTH 585 0
DWIDTH 25 0
BBX 20 29 2 2
BITMAP
03C300
03C300
0FFF00
0FFF00
0C3C00
0C3C00
000000
000000
0FFF00
0FFF00
3FFFC0
3FFFC0
FC03F0
FC03F0
F000F0
F000F0
F000F0
F000F0
F000F0
F000F0
F000F0
F000F0
F000F0
FC03F0
FC03F0
3FFFC0
3FFFC0
0FFF00
0FFF00
ENDCHAR
STARTCHAR odieresis
ENCODING 246
SWIDTH 585 0
DWIDTH 24 0
BBX 20 29 2 2
BITMAP
0F0F00
0F0F00
0F0F00
0F0F00
000000
000000
000000
000000
0FFF00
0FFF00
3FFFC0
3FFFC0
FC03F0
FC03F0
F000F0
F000F0
F000F0
F000F0
F000F0
F000F0
F000F0
F000F0
F000F0
FC03F0
FC03F0
3FFFC0
3FFFC0
0FFF00
0FFF00
ENDCHAR
STARTCHAR oslash
ENCODING 248
SWIDTH 585 0
DWIDTH 24 0
BBX 20 23 2 2
BITMAP
0FFCF0
0FFCF0
3FFFF0
3FFFF0
FC03C0
FC03C0
F00FF0
F00FF0
F03FF0
F03CF0
F0FCF0
F0F0F0
F3F0F0
F3C0F0
FFC0F0
FF00F0
FF00F0
3C03F0
3C03F0
FFFFC0
FFFFC0
F3FF00
F3FF00
ENDCHAR
STARTCHAR ugrave
ENCODING 249
SWIDTH 585 0
DWIDTH 24 0
BBX 20 29 2 2
BITMAP
0FC000
0FC000
03F000
03F000
003C00
003C00
000000
000000
000000
F000F0
F000F0
F000F0
F000F0
F000F0
F000F0
F000F0
F000F0
F000F0
F000F0
F000F0
F000F0
F000F0
F000F0
FC03F0
FC03F0
3FFFC0
3FFFC0
0FFF00
0FFF00
ENDCHAR
STARTCHAR uacute
ENCODING 250
SWIDTH 585 0
DWIDTH 24 0
BBX 20 29 2 2
BITMAP
003F00
003F00
00FC00
00FC00
03C000
03C000
000000
000000
000000
F000F0
F000F0
F000F0
F000F0
F000F0
F000F0
F000F0
F000F0
F000F0
F000F0
F000F0
F000F0
F000F0
F000F0
FC03F0
FC03F0
3FFFC0
3FFFC0
0FFF00
0FFF00
ENDCHAR
STARTCHAR ucircumflex
ENCODING 251
SWIDTH 585 0
DWIDTH 24 0
BBX 20 29 2 2
BITMAP
00F000
00F000
03FC00
03FC00
0F0F00
0F0F00
000000
000000
000000
F000F0
F000F0
F000F0
F000F0
F000F0
F000F0
F000F0
F000F0
F000F0
F000F0
F000F0
F000F0
F000F0
F000F0
FC03F0
FC03F0
3FFFC0
3FFFC0
0FFF00
0FFF00
ENDCHAR
STARTCHAR udieresis
ENCODING 252
SWIDTH 585 0
DWIDTH 25 0
BBX 20 29 2 2
BITMAP
0F0F00
0F0F00
0F0F00
0F0F00
000000
000000
000000
000000
000000
F000F0
F000F0
F000F0
F000F0
F000F0
F000F0
F000F0
F000F0
F000F0
F000F0
F000F0
F000F0
F000F0
F000F0
FC03F0
FC03F0
3FFFC0
3FFFC0
0FFF00
0FFF00
ENDCHAR
STARTCHAR yacute
ENCODING 253
SWIDTH 585 0
DWIDTH 24 0
BBX 20 29 2 2
BITMAP
003F00
003F00
00FC00
00FC00
03C000
03C000
000000
000000
000000
F000F0
F000F0
F003F0
F003F0
F00FF0
F00FF0
FC3FF0
FC3FF0
3FFCF0
3FFCF0
0FF0F0
0FF0F0
0000F0
0000F0
0003F0
0003F0
0FFFC0
0FFFC0
0FFF00
0FFF00
ENDCHAR
STARTCHAR thorn
ENCODING 254
SWIDTH 585 0
DWIDTH 24 0
BBX 20 27 2 2
BITMAP
F00000
F00000
F00000
F00000
F0FF00
F0FF00
FFFFC0
FFFFC0
FF03F0
FF03F0
F000F0
F000F0
F000F0
F000F0
F000F0
F000F0
F000F0
FF03F0
FF03F0
FFFFC0
FFFFC0
F0FF00
F0FF00
F00000
F00000
F00000
F00000
ENDCHAR
STARTCHAR ydieresis
ENCODING 255
SWIDTH 585 0
DWIDTH 24 0
BBX 20 29 2 2
BITMAP
0F0F00
0F0F00
0F0F00
0F0F00
000000
000000
000000
000000
000000
F000F0
F000F0
F003F0
F003F0
F00FF0
F00FF0
FC3FF0
FC3FF0
3FFCF0
3FFCF0
0FF0F0
0FF0F0
0000F0
0000F0
0003F0
0003F0
0FFFC0
0FFFC0
0FFF00
0FFF00
ENDCHAR
STARTCHAR semicolon.dup4
ENCODING 894
SWIDTH 146 0
DWIDTH 6 0
BBX 4 27 1 0
BITMAP
30
30
30
30
00
00
00
00
00
00
00
00
00
00
00
00
00
30
30
30
30
30
60
60
60
C0
C0
ENDCHAR
STARTCHAR quoteleft
ENCODING 8216
SWIDTH 585 0
DWIDTH 25 0
BBX 6 13 12 18
BITMAP
0C
0C
30
30
F0
F0
FC
FC
FC
FC
FC
FC
FC
ENDCHAR
STARTCHAR quoteright
ENCODING 8217
SWIDTH 585 0
DWIDTH 25 0
BBX 6 13 6 18
BITMAP
FC
FC
FC
FC
FC
FC
3C
3C
30
30
00
C0
C0
ENDCHAR
STARTCHAR quotedblleft
ENCODING 8220
SWIDTH 585 0
DWIDTH 25 0
BBX 16 12 4 19
BITMAP
0C03
0C03
300C
300C
F03C
F03C
FC3F
FC3F
FC3F
FC3F
FC3F
FC3F
ENDCHAR
STARTCHAR quotedblright
ENCODING 8221
SWIDTH 585 0
DWIDTH 24 0
BBX 16 12 4 19
BITMAP
FC3F
FC3F
FC3F
FC3F
FC3F
FC3F
3C0F
3C0F
300C
300C
C030
C030
ENDCHAR
STARTCHAR bullet
ENCODING 8226
SWIDTH 585 0
DWIDTH 25 0
BBX 12 10 6 12
BITMAP
3FC0
3FC0
FFF0
FFF0
FFF0
FFF0
FFF0
FFF0
3FC0
3FC0
ENDCHAR
STARTCHAR ellipsis
ENCODING 8230
SWIDTH 585 0
DWIDTH 24 0
BBX 20 4 2 2
BITMAP
F0F0F0
F0F0F0
F0F0F0
F0F0F0
ENDCHAR
STARTCHAR guilsinglleft
ENCODING 8249
SWIDTH 585 0
DWIDTH 25 0
BBX 10 19 4 2
BITMAP
00C0
00C0
03C0
03C0
0F00
0F00
3C00
3C00
F000
F000
F000
3C00
3C00
0F00
0F00
03C0
03C0
00C0
00C0
ENDCHAR
STARTCHAR guilsinglright
ENCODING 8250
SWIDTH 585 0
DWIDTH 25 0
BBX 10 19 6 2
BITMAP
C000
C000
F000
F000
3C00
3C00
0F00
0F00
03C0
03C0
03C0
0F00
0F00
3C00
3C00
F000
F000
C000
C000
ENDCHAR
STARTCHAR fraction
ENCODING 8260
SWIDTH 585 0
DWIDTH 24 0
BBX 20 29 2 2
BITMAP
0000F0
0000F0
0000F0
0000F0
0000F0
0000F0
0003F0
0003F0
000FC0
000FC0
003F00
003F00
00FC00
00FC00
00F000
03F000
03F000
0FC000
0FC000
3F0000
3F0000
FC0000
FC0000
F00000
F00000
F00000
F00000
F00000
F00000
ENDCHAR
STARTCHAR franc
ENCODING 8355
SWIDTH 585 0
DWIDTH 25 0
BBX 20 29 2 2
BITMAP
3FFFF0
3FFFF0
3FFFF0
3FFFF0
3C0000
3C0000
3C0000
3C0000
3C0000
3C0000
3C0000
3C0000
3C0000
3FFF00
3FFF00
3FFF00
3FFF00
3C0000
3C0000
3C0000
3C0000
FFC000
FFC000
3C0000
3C0000
3C0000
3C0000
3C0000
3C0000
ENDCHAR
STARTCHAR lira
ENCODING 8356
SWIDTH 585 0
DWIDTH 25 0
BBX 20 33 2 2
BITMAP
00FF00
00FF00
03FFC0
03FFC0
0FC3F0
0FC3F0
0F00F0
0F00F0
0F0000
0F0000
0F0000
0F0000
FFFF00
FFFF00
FFFF00
FFFF00
0F0000
0F0000
0F0000
FFFF00
FFFF00
FFFF00
FFFF00
0F0000
0F0000
0F0000
0F0000
3C0000
3C0000
FFFFF0
FFFFF0
FFFFF0
FFFFF0
ENDCHAR
STARTCHAR peseta
ENCODING 8359
SWIDTH 585 0
DWIDTH 25 0
BBX 21 29 2 2
BITMAP
FC0000
FC0000
CF0000
CF0000
C30000
C30000
C30000
C30000
C30000
C30000
C30000
C33000
C33000
C33000
C33000
CFFFF8
CFFFF8
FC3318
FC3318
C03300
C03300
C033F8
C033F8
C03018
C03018
C03318
C03318
C033F8
C033F8
ENDCHAR
STARTCHAR Euro
ENCODING 8364
SWIDTH 585 0
DWIDTH 25 0
BBX 20 33 2 2
BITMAP
00FF00
00FF00
03FFC0
03FFC0
0FC0F0
0FC0F0
3F0000
3F0000
3C0000
3C0000
FFF000
FFF000
FFF000
FFF000
3C0000
3C0000
3C0000
FFF000
FFF000
FFF000
FFF000
3C0000
3C0000
3C0000
3C0000
3F0000
3F0000
0FC0F0
0FC0F0
03FFC0
03FFC0
00FF00
00FF00
ENDCHAR
STARTCHAR trademark
ENCODING 8482
SWIDTH 585 0
DWIDTH 25 0
BBX 21 13 2 18
BITMAP
FFF018
FFF018
0C3C78
0C3C78
0C3318
0C3318
0C3018
0C3018
0C3018
0C3018
0C3018
0C3018
0C3018
ENDCHAR
STARTCHAR arrowleft
ENCODING 8592
SWIDTH 585 0
DWIDTH 25 0
BBX 20 21 2 6
BITMAP
00F000
00F000
03C000
03C000
030000
0F0000
0F0000
3C0000
3C0000
FFFFF0
FFFFF0
FFFFF0
FFFFF0
3C0000
3C0000
0F0000
0F0000
03C000
03C000
00F000
00F000
ENDCHAR
STARTCHAR arrowup
ENCODING 8593
SWIDTH 585 0
DWIDTH 25 0
BBX 20 21 2 6
BITMAP
00F000
00F000
00F000
00F000
00F000
03FC00
03FC00
03FC00
0F0F00
0F0F00
0F0F00
0F0F00
0F0F00
3C03C0
3C03C0
3C03C0
3C03C0
F000F0
F000F0
F000F0
F000F0
ENDCHAR
STARTCHAR arrowright
ENCODING 8594
SWIDTH 585 0
DWIDTH 25 0
BBX 20 21 2 6
BITMAP
00F000
00F000
003C00
003C00
003F00
000F00
000F00
0003C0
0003C0
FFFFF0
FFFFF0
FFFFF0
FFFFF0
0003C0
0003C0
000F00
000F00
003C00
003C00
00F000
00F000
ENDCHAR
STARTCHAR arrowdown
ENCODING 8595
SWIDTH 585 0
DWIDTH 25 0
BBX 20 21 2 6
BITMAP
F000F0
F000F0
F000F0
F000F0
3C03C0
3C03C0
3C03C0
3C03C0
0F0F00
0F0F00
0F0F00
0F0F00
0F0F00
03FC00
03FC00
03FC00
00F000
00F000
00F000
00F000
00F000
ENDCHAR
STARTCHAR arrowboth
ENCODING 8596
SWIDTH 585 0
DWIDTH 25 0
BBX 20 21 2 4
BITMAP
003000
003000
003C00
003C00
003C00
003F00
003F00
FFFFC0
FFFFC0
FFFFF0
FFFFF0
FFFFF0
FFFFF0
FFFFC0
FFFFC0
003F00
003F00
003C00
003C00
003000
003000
ENDCHAR
STARTCHAR fraction.dup5
ENCODING 8725
SWIDTH 585 0
DWIDTH 24 0
BBX 20 29 2 2
BITMAP
0000F0
0000F0
0000F0
0000F0
0000F0
0000F0
0003F0
0003F0
000FC0
000FC0
003F00
003F00
00FC00
00FC00
00F000
03F000
03F000
0FC000
0FC000
3F0000
3F0000
FC0000
FC0000
F00000
F00000
F00000
F00000
F00000
F00000
ENDCHAR
STARTCHAR triagup
ENCODING 9650
SWIDTH 585 0
DWIDTH 25 0
BBX 20 25 2 4
BITMAP
00F000
00F000
00F000
00F000
03FC00
03FC00
03FC00
03FC00
03FF00
0FFF00
0FFF00
0FFF00
0FFF00
3FFFC0
3FFFC0
3FFFC0
3FFFC0
FFFFF0
FFFFF0
FFFFF0
FFFFF0
FFFFF0
FFFFF0
FFFFF0
FFFFF0
ENDCHAR
STARTCHAR triagrt
ENCODING 9658
SWIDTH 585 0
DWIDTH 25 0
BBX 16 25 4 4
BITMAP
FC00
FC00
FF00
FF00
FFC0
FFC0
FFF0
FFF0
FFFC
FFFC
FFFF
FFFF
FFFF
FFFF
FFFF
FFFC
FFFC
FFF0
FFF0
FFC0
FFC0
FF00
FF00
FC00
FC00
ENDCHAR
STARTCHAR triagdn
ENCODING 9660
SWIDTH 585 0
DWIDTH 25 0
BBX 20 25 2 4
BITMAP
FFFFF0
FFFFF0
FFFFF0
FFFFF0
FFFFF0
FFFFF0
FFFFF0
FFFFF0
3FFFC0
3FFFC0
3FFFC0
3FFFC0
0FFF00
0FFF00
0FFF00
0FFF00
0FFC00
03FC00
03FC00
03FC00
03FC00
00F000
00F000
00F000
00F000
ENDCHAR
STARTCHAR triaglf
ENCODING 9668
SWIDTH 585 0
DWIDTH 24 0
BBX 16 25 4 4
BITMAP
003F
003F
00FF
00FF
03FF
03FF
0FFF
0FFF
3FFF
3FFF
FFFF
FFFF
FFFF
FFFF
FFFF
3FFF
3FFF
0FFF
0FFF
03FF
03FF
00FF
00FF
003F
003F
ENDCHAR
STARTCHAR .notdef
ENCODING -1
SWIDTH 585 0
DWIDTH 26 0
BBX 25 37 0 0
BITMAP
FFFFFF80
FFFFFF80
E0000380
F0000780
F8000F80
D8000D80
DC001D80
CE003980
C6003180
C7007180
C380E180
C380C180
C1C1C180
C0C38180
C0E38180
C0770180
C03E0180
C03E0180
C01C0180
C03C0180
C03E0180
C0770180
C0630180
C0E38180
C1C1C180
C180C180
C380E180
C7007180
C6003180
CE003980
DC001980
D8001D80
F8000F80
F0000780
E0000780
FFFFFF80
FFFFFF80
ENDCHAR
STARTCHAR nonmarkingreturn
ENCODING -1
SWIDTH 585 0
DWIDTH 25 0
BBX 1 1 0 0
BITMAP
00
ENDCHAR
ENDFONT
